<?xml version="1.0" encoding="utf-8"?>

<!-- The icon can be used freely in both personal and commercial projects with no attribution required, but always appreciated. 
You may NOT sub-license, resell, rent, redistribute or otherwise transfer the icon without express written permission from iconmonstr.com -->

<!DOCTYPE svg PUBLIC "-//W3C//DTD SVG 1.1//EN" "http://www.w3.org/Graphics/SVG/1.1/DTD/svg11.dtd">
<svg version="1.1" xmlns="http://www.w3.org/2000/svg" xmlns:xlink="http://www.w3.org/1999/xlink" x="0px" y="0px"
	 width="512px" height="512px" viewBox="0 0 512 512" enable-background="new 0 0 512 512" xml:space="preserve">
<path id="volume-control-3-icon" d="M350.539,185.385c-52.207-52.211-136.863-52.216-189.078,0
	c-52.213,52.211-52.213,136.865,0,189.078c52.209,52.209,136.863,52.218,189.078,0C402.754,322.25,402.754,237.596,350.539,185.385z
	 M217.436,265.919l-40.756-40.761l24.555-24.556l40.758,40.758L217.436,265.919z M243.5,116.7V74.312h25V116.7
	c-4.145-0.312-8.311-0.476-12.5-0.476S247.643,116.388,243.5,116.7z M182.018,133.862l-16.217-39.182
	c7.457-3.638,15.166-6.838,23.096-9.568l16.221,39.19c-3.6,1.178-7.17,2.478-10.701,3.91
	C190.189,129.928,186.059,131.818,182.018,133.862z M307.91,124.649l16.48-39.084c7.91,2.783,15.598,6.034,23.031,9.723
	l-16.475,39.068c-4.346-2.235-8.797-4.292-13.361-6.143C314.391,126.918,311.162,125.736,307.91,124.649z M402.062,205.941
	l39.182-16.217c3.637,7.457,6.838,15.166,9.568,23.096l-39.191,16.221c-1.178-3.602-2.479-7.171-3.91-10.703
	C405.996,214.111,404.105,209.981,402.062,205.941z M362.582,155.665l29.967-29.966c6.242,5.531,12.145,11.435,17.676,17.677
	l-29.965,29.966c-2.709-3.148-5.545-6.207-8.508-9.171C368.789,161.208,365.73,158.373,362.582,155.665z M131.74,173.343
	l-29.967-29.966c5.531-6.242,11.436-12.146,17.678-17.678l29.967,29.966c-3.148,2.708-6.207,5.543-9.17,8.507
	C137.283,167.136,134.447,170.194,131.74,173.343z M109.939,353.908l-39.182,16.217c-3.639-7.457-6.838-15.167-9.568-23.096
	l39.191-16.222c1.176,3.6,2.477,7.169,3.908,10.7C106.004,345.735,107.895,349.867,109.939,353.908z M411.273,331.834l39.084,16.481
	c-2.783,7.909-6.033,15.597-9.723,23.031l-39.068-16.474c2.236-4.348,4.293-8.8,6.145-13.364
	C409.006,338.313,410.188,335.086,411.273,331.834z M461.611,292.424h-42.387c0.312-4.144,0.475-8.312,0.475-12.501
	c0-4.188-0.162-8.355-0.475-12.499h42.387V292.424z M380.26,386.506l29.965,29.967c-5.531,6.242-11.436,12.146-17.678,17.678
	l-29.967-29.967c3.148-2.708,6.209-5.544,9.172-8.508C374.717,392.713,377.551,389.654,380.26,386.506z M100.725,228.014
	l-39.082-16.48c2.783-7.91,6.033-15.598,9.723-23.031l39.066,16.474c-2.234,4.347-4.291,8.798-6.143,13.362
	C102.994,221.534,101.812,224.762,100.725,228.014z M92.775,292.424H50.389v-25h42.387c-0.312,4.144-0.475,8.311-0.475,12.499
	C92.301,284.112,92.463,288.28,92.775,292.424z M149.418,404.184l-33.504,33.504L98.236,420.01l33.506-33.504
	c2.707,3.148,5.543,6.207,8.506,9.17C143.211,398.64,146.27,401.475,149.418,404.184z"/>
</svg>
