<?xml version="1.0" encoding="UTF-8" standalone="no"?>
<!-- Created with Inkscape (http://www.inkscape.org/) -->

<svg
   xmlns:dc="http://purl.org/dc/elements/1.1/"
   xmlns:cc="http://creativecommons.org/ns#"
   xmlns:rdf="http://www.w3.org/1999/02/22-rdf-syntax-ns#"
   xmlns:svg="http://www.w3.org/2000/svg"
   xmlns="http://www.w3.org/2000/svg"
   xmlns:xlink="http://www.w3.org/1999/xlink"
   version="1.1"
   width="349.10669"
   height="504.40765"
   id="svg2">
  <defs
     id="defs4">
    <linearGradient
       id="linearGradient3757">
      <stop
         id="stop3759"
         style="stop-color:#262626;stop-opacity:1"
         offset="0" />
      <stop
         id="stop3761"
         style="stop-color:#333333;stop-opacity:0.58823532"
         offset="1" />
    </linearGradient>
    <linearGradient
       x1="31.314728"
       y1="660.42297"
       x2="31.314728"
       y2="414.9559"
       id="linearGradient3798"
       xlink:href="#linearGradient3757"
       gradientUnits="userSpaceOnUse"
       gradientTransform="matrix(0.80332155,0,0,0.84975299,288.99069,125.11433)" />
  </defs>
  <metadata
     id="metadata7">
    <rdf:RDF>
      <cc:Work
         rdf:about="">
        <dc:format>image/svg+xml</dc:format>
        <dc:type
           rdf:resource="http://purl.org/dc/dcmitype/StillImage" />
        <dc:title></dc:title>
      </cc:Work>
    </rdf:RDF>
  </metadata>
  <g
     transform="translate(-140.81731,-331.11325)"
     id="layer1">
    <rect
       width="349.10669"
       height="504.40765"
       ry="0.70042151"
       x="140.81731"
       y="331.11325"
       id="rect2985"
       style="opacity:0.59999994;fill:#e6e6e6;fill-opacity:1;stroke:none" />
    <path
       d="m 243.46596,477.73527 c -1.75317,0 -3.15334,1.73328 -3.15334,3.90355 l 0,203.32996 c 0,2.17027 1.40017,3.93011 3.15334,3.93011 l 143.78794,0 c 1.75317,0 3.17479,-1.75984 3.17479,-3.93011 l 0,-203.32996 c 0,-2.17027 -1.42162,-3.90355 -3.17479,-3.90355 l -143.78794,0 z m 4.50477,6.42626 8.58051,0 c 1.75317,0 3.17479,1.75984 3.17479,3.9301 l 0,10.59536 c 0,2.17027 -1.42162,3.93011 -3.17479,3.93011 l -8.58051,0 c -1.75317,0 -3.15334,-1.75984 -3.15334,-3.93011 l 0,-10.59536 c 0,-2.17026 1.40017,-3.9301 3.15334,-3.9301 z m 126.30515,0 8.58051,0 c 1.75317,0 3.17479,1.75984 3.17479,3.9301 l 0,10.59536 c 0,2.17027 -1.42162,3.93011 -3.17479,3.93011 l -8.58051,0 c -1.75317,0 -3.15335,-1.75984 -3.15335,-3.93011 l 0,-10.59536 c 0,-2.17026 1.40018,-3.9301 3.15335,-3.9301 z m -126.30515,30.16623 8.58051,0 c 1.75317,0 3.17479,1.75984 3.17479,3.93011 l 0,10.62191 c 0,2.17027 -1.42162,3.90355 -3.17479,3.90355 l -8.58051,0 c -1.75317,0 -3.15334,-1.73328 -3.15334,-3.90355 l 0,-10.62191 c 0,-2.17027 1.40017,-3.93011 3.15334,-3.93011 z m 126.30515,0 8.58051,0 c 1.75317,0 3.17479,1.75984 3.17479,3.93011 l 0,10.62191 c 0,2.17027 -1.42162,3.90355 -3.17479,3.90355 l -8.58051,0 c -1.75317,0 -3.15335,-1.73328 -3.15335,-3.90355 l 0,-10.62191 c 0,-2.17027 1.40018,-3.93011 3.15335,-3.93011 z m -126.30515,30.16623 8.58051,0 c 1.75317,0 3.17479,1.75984 3.17479,3.93011 l 0,10.62191 c 0,2.17027 -1.42162,3.90355 -3.17479,3.90355 l -8.58051,0 c -1.75317,0 -3.15334,-1.73328 -3.15334,-3.90355 l 0,-10.62191 c 0,-2.17027 1.40017,-3.93011 3.15334,-3.93011 z m 126.30515,0 8.58051,0 c 1.75317,0 3.17479,1.75984 3.17479,3.93011 l 0,10.62191 c 0,2.17027 -1.42162,3.90355 -3.17479,3.90355 l -8.58051,0 c -1.75317,0 -3.15335,-1.73328 -3.15335,-3.90355 l 0,-10.62191 c 0,-2.17027 1.40018,-3.93011 3.15335,-3.93011 z m -126.30515,30.16623 8.58051,0 c 1.75317,0 3.17479,1.75984 3.17479,3.93011 l 0,10.62191 c 0,2.17027 -1.42162,3.90355 -3.17479,3.90355 l -8.58051,0 c -1.75317,0 -3.15334,-1.73328 -3.15334,-3.90355 l 0,-10.62191 c 0,-2.17027 1.40017,-3.93011 3.15334,-3.93011 z m 126.30515,0 8.58051,0 c 1.75317,0 3.17479,1.75984 3.17479,3.93011 l 0,10.62191 c 0,2.17027 -1.42162,3.90355 -3.17479,3.90355 l -8.58051,0 c -1.75317,0 -3.15335,-1.73328 -3.15335,-3.90355 l 0,-10.62191 c 0,-2.17027 1.40018,-3.93011 3.15335,-3.93011 z m -126.30515,30.16623 8.58051,0 c 1.75317,0 3.17479,1.75984 3.17479,3.93011 l 0,10.62191 c 0,2.17027 -1.42162,3.90355 -3.17479,3.90355 l -8.58051,0 c -1.75317,0 -3.15334,-1.73328 -3.15334,-3.90355 l 0,-10.62191 c 0,-2.17027 1.40017,-3.93011 3.15334,-3.93011 z m 126.30515,0 8.58051,0 c 1.75317,0 3.17479,1.75984 3.17479,3.93011 l 0,10.62191 c 0,2.17027 -1.42162,3.90355 -3.17479,3.90355 l -8.58051,0 c -1.75317,0 -3.15335,-1.73328 -3.15335,-3.90355 l 0,-10.62191 c 0,-2.17027 1.40018,-3.93011 3.15335,-3.93011 z m -126.30515,30.16623 8.58051,0 c 1.75317,0 3.17479,1.75984 3.17479,3.93011 l 0,10.62191 c 0,2.17027 -1.42162,3.90356 -3.17479,3.90356 l -8.58051,0 c -1.75317,0 -3.15334,-1.73329 -3.15334,-3.90356 l 0,-10.62191 c 0,-2.17027 1.40017,-3.93011 3.15334,-3.93011 z m 126.30515,0 8.58051,0 c 1.75317,0 3.17479,1.75984 3.17479,3.93011 l 0,10.62191 c 0,2.17027 -1.42162,3.90356 -3.17479,3.90356 l -8.58051,0 c -1.75317,0 -3.15335,-1.73329 -3.15335,-3.90356 l 0,-10.62191 c 0,-2.17027 1.40018,-3.93011 3.15335,-3.93011 z m -126.30515,30.16623 8.58051,0 c 1.75317,0 3.17479,1.75984 3.17479,3.93011 l 0,10.62191 c 0,2.17027 -1.42162,3.90356 -3.17479,3.90356 l -8.58051,0 c -1.75317,0 -3.15334,-1.73329 -3.15334,-3.90356 l 0,-10.62191 c 0,-2.17027 1.40017,-3.93011 3.15334,-3.93011 z m 126.30515,0 8.58051,0 c 1.75317,0 3.17479,1.75984 3.17479,3.93011 l 0,10.62191 c 0,2.17027 -1.42162,3.90356 -3.17479,3.90356 l -8.58051,0 c -1.75317,0 -3.15335,-1.73329 -3.15335,-3.90356 l 0,-10.62191 c 0,-2.17027 1.40018,-3.93011 3.15335,-3.93011 z"
       id="rect3755"
       style="opacity:0.59999994;fill:url(#linearGradient3798);fill-opacity:1;stroke:none" />
  </g>
</svg>
