<?xml version="1.0" encoding="UTF-8" standalone="no"?>
<!-- Created with Inkscape (http://www.inkscape.org/) -->

<svg
   xmlns:dc="http://purl.org/dc/elements/1.1/"
   xmlns:cc="http://creativecommons.org/ns#"
   xmlns:rdf="http://www.w3.org/1999/02/22-rdf-syntax-ns#"
   xmlns:svg="http://www.w3.org/2000/svg"
   xmlns="http://www.w3.org/2000/svg"
   xmlns:xlink="http://www.w3.org/1999/xlink"
   xmlns:sodipodi="http://sodipodi.sourceforge.net/DTD/sodipodi-0.dtd"
   xmlns:inkscape="http://www.inkscape.org/namespaces/inkscape"
   version="1.1"
   width="1242.5067"
   height="436.0134"
   id="svg2"
   inkscape:version="0.48.5 r10040"
   sodipodi:docname="placeholder-movie-full.svg">
  <sodipodi:namedview
     pagecolor="#ffffff"
     bordercolor="#666666"
     borderopacity="1"
     objecttolerance="10"
     gridtolerance="10"
     guidetolerance="10"
     inkscape:pageopacity="0"
     inkscape:pageshadow="2"
     inkscape:window-width="1366"
     inkscape:window-height="719"
     id="namedview12"
     showgrid="false"
     fit-margin-top="0"
     fit-margin-left="0"
     fit-margin-right="0"
     fit-margin-bottom="0"
     inkscape:zoom="0.46787553"
     inkscape:cx="324.33853"
     inkscape:cy="183.80957"
     inkscape:window-x="0"
     inkscape:window-y="26"
     inkscape:window-maximized="1"
     inkscape:current-layer="layer1" />
  <defs
     id="defs4">
    <linearGradient
       id="linearGradient3757">
      <stop
         id="stop3759"
         style="stop-color:#262626;stop-opacity:1"
         offset="0" />
      <stop
         id="stop3761"
         style="stop-color:#333333;stop-opacity:0.58823532"
         offset="1" />
    </linearGradient>
    <linearGradient
       x1="31.314728"
       y1="660.42297"
       x2="31.314728"
       y2="414.9559"
       id="linearGradient3798"
       xlink:href="#linearGradient3757"
       gradientUnits="userSpaceOnUse"
       gradientTransform="matrix(0.80332155,0,0,0.84975299,331.56439,90.917199)" />
  </defs>
  <metadata
     id="metadata7">
    <rdf:RDF>
      <cc:Work
         rdf:about="">
        <dc:format>image/svg+xml</dc:format>
        <dc:type
           rdf:resource="http://purl.org/dc/dcmitype/StillImage" />
        <dc:title />
      </cc:Work>
    </rdf:RDF>
  </metadata>
  <g
     transform="translate(263.30902,-331.11325)"
     id="layer1">
    <rect
       width="1242.5067"
       height="436.0134"
       ry="0.60544908"
       x="-263.30902"
       y="331.11325"
       id="rect2985"
       style="opacity:0.59999994;fill:#e6e6e6;fill-opacity:1;stroke:none" />
    <path
       d="m 286.03966,443.53814 c -1.75317,0 -3.15334,1.73328 -3.15334,3.90355 l 0,203.32996 c 0,2.17027 1.40017,3.93011 3.15334,3.93011 l 143.78794,0 c 1.75317,0 3.17479,-1.75984 3.17479,-3.93011 l 0,-203.32996 c 0,-2.17027 -1.42162,-3.90355 -3.17479,-3.90355 l -143.78794,0 z m 4.50477,6.42626 8.58051,0 c 1.75317,0 3.17479,1.75984 3.17479,3.9301 l 0,10.59536 c 0,2.17027 -1.42162,3.93011 -3.17479,3.93011 l -8.58051,0 c -1.75317,0 -3.15334,-1.75984 -3.15334,-3.93011 l 0,-10.59536 c 0,-2.17026 1.40017,-3.9301 3.15334,-3.9301 z m 126.30515,0 8.58051,0 c 1.75317,0 3.17479,1.75984 3.17479,3.9301 l 0,10.59536 c 0,2.17027 -1.42162,3.93011 -3.17479,3.93011 l -8.58051,0 c -1.75317,0 -3.15335,-1.75984 -3.15335,-3.93011 l 0,-10.59536 c 0,-2.17026 1.40018,-3.9301 3.15335,-3.9301 z m -126.30515,30.16623 8.58051,0 c 1.75317,0 3.17479,1.75984 3.17479,3.93011 l 0,10.62191 c 0,2.17027 -1.42162,3.90355 -3.17479,3.90355 l -8.58051,0 c -1.75317,0 -3.15334,-1.73328 -3.15334,-3.90355 l 0,-10.62191 c 0,-2.17027 1.40017,-3.93011 3.15334,-3.93011 z m 126.30515,0 8.58051,0 c 1.75317,0 3.17479,1.75984 3.17479,3.93011 l 0,10.62191 c 0,2.17027 -1.42162,3.90355 -3.17479,3.90355 l -8.58051,0 c -1.75317,0 -3.15335,-1.73328 -3.15335,-3.90355 l 0,-10.62191 c 0,-2.17027 1.40018,-3.93011 3.15335,-3.93011 z m -126.30515,30.16623 8.58051,0 c 1.75317,0 3.17479,1.75984 3.17479,3.93011 l 0,10.62191 c 0,2.17027 -1.42162,3.90355 -3.17479,3.90355 l -8.58051,0 c -1.75317,0 -3.15334,-1.73328 -3.15334,-3.90355 l 0,-10.62191 c 0,-2.17027 1.40017,-3.93011 3.15334,-3.93011 z m 126.30515,0 8.58051,0 c 1.75317,0 3.17479,1.75984 3.17479,3.93011 l 0,10.62191 c 0,2.17027 -1.42162,3.90355 -3.17479,3.90355 l -8.58051,0 c -1.75317,0 -3.15335,-1.73328 -3.15335,-3.90355 l 0,-10.62191 c 0,-2.17027 1.40018,-3.93011 3.15335,-3.93011 z m -126.30515,30.16623 8.58051,0 c 1.75317,0 3.17479,1.75984 3.17479,3.93011 l 0,10.62191 c 0,2.17027 -1.42162,3.90355 -3.17479,3.90355 l -8.58051,0 c -1.75317,0 -3.15334,-1.73328 -3.15334,-3.90355 l 0,-10.62191 c 0,-2.17027 1.40017,-3.93011 3.15334,-3.93011 z m 126.30515,0 8.58051,0 c 1.75317,0 3.17479,1.75984 3.17479,3.93011 l 0,10.62191 c 0,2.17027 -1.42162,3.90355 -3.17479,3.90355 l -8.58051,0 c -1.75317,0 -3.15335,-1.73328 -3.15335,-3.90355 l 0,-10.62191 c 0,-2.17027 1.40018,-3.93011 3.15335,-3.93011 z m -126.30515,30.16623 8.58051,0 c 1.75317,0 3.17479,1.75984 3.17479,3.93011 l 0,10.62191 c 0,2.17027 -1.42162,3.90355 -3.17479,3.90355 l -8.58051,0 c -1.75317,0 -3.15334,-1.73328 -3.15334,-3.90355 l 0,-10.62191 c 0,-2.17027 1.40017,-3.93011 3.15334,-3.93011 z m 126.30515,0 8.58051,0 c 1.75317,0 3.17479,1.75984 3.17479,3.93011 l 0,10.62191 c 0,2.17027 -1.42162,3.90355 -3.17479,3.90355 l -8.58051,0 c -1.75317,0 -3.15335,-1.73328 -3.15335,-3.90355 l 0,-10.62191 c 0,-2.17027 1.40018,-3.93011 3.15335,-3.93011 z m -126.30515,30.16623 8.58051,0 c 1.75317,0 3.17479,1.75984 3.17479,3.93011 l 0,10.62191 c 0,2.17027 -1.42162,3.90356 -3.17479,3.90356 l -8.58051,0 c -1.75317,0 -3.15334,-1.73329 -3.15334,-3.90356 l 0,-10.62191 c 0,-2.17027 1.40017,-3.93011 3.15334,-3.93011 z m 126.30515,0 8.58051,0 c 1.75317,0 3.17479,1.75984 3.17479,3.93011 l 0,10.62191 c 0,2.17027 -1.42162,3.90356 -3.17479,3.90356 l -8.58051,0 c -1.75317,0 -3.15335,-1.73329 -3.15335,-3.90356 l 0,-10.62191 c 0,-2.17027 1.40018,-3.93011 3.15335,-3.93011 z m -126.30515,30.16623 8.58051,0 c 1.75317,0 3.17479,1.75984 3.17479,3.93011 l 0,10.62191 c 0,2.17027 -1.42162,3.90356 -3.17479,3.90356 l -8.58051,0 c -1.75317,0 -3.15334,-1.73329 -3.15334,-3.90356 l 0,-10.62191 c 0,-2.17027 1.40017,-3.93011 3.15334,-3.93011 z m 126.30515,0 8.58051,0 c 1.75317,0 3.17479,1.75984 3.17479,3.93011 l 0,10.62191 c 0,2.17027 -1.42162,3.90356 -3.17479,3.90356 l -8.58051,0 c -1.75317,0 -3.15335,-1.73329 -3.15335,-3.90356 l 0,-10.62191 c 0,-2.17027 1.40018,-3.93011 3.15335,-3.93011 z"
       id="rect3755"
       style="opacity:0.59999994;fill:url(#linearGradient3798);fill-opacity:1;stroke:none"
       inkscape:connector-curvature="0" />
  </g>
</svg>
