<?xml version="1.0" encoding="UTF-8" standalone="no"?>
<!-- Created with Inkscape (http://www.inkscape.org/) -->

<svg
   xmlns:dc="http://purl.org/dc/elements/1.1/"
   xmlns:cc="http://creativecommons.org/ns#"
   xmlns:rdf="http://www.w3.org/1999/02/22-rdf-syntax-ns#"
   xmlns:svg="http://www.w3.org/2000/svg"
   xmlns="http://www.w3.org/2000/svg"
   xmlns:xlink="http://www.w3.org/1999/xlink"
   xmlns:sodipodi="http://sodipodi.sourceforge.net/DTD/sodipodi-0.dtd"
   xmlns:inkscape="http://www.inkscape.org/namespaces/inkscape"
   version="1.1"
   width="349.10669"
   height="504.40765"
   id="svg2"
   inkscape:version="0.91 r13725"
   sodipodi:docname="placeholder-music.svg">
  <sodipodi:namedview
     pagecolor="#ffffff"
     bordercolor="#666666"
     borderopacity="1"
     objecttolerance="10"
     gridtolerance="10"
     guidetolerance="10"
     inkscape:pageopacity="0"
     inkscape:pageshadow="2"
     inkscape:window-width="640"
     inkscape:window-height="480"
     id="namedview12"
     showgrid="false"
     inkscape:zoom="2.6915631"
     inkscape:cx="134.88788"
     inkscape:cy="265.92454"
     inkscape:current-layer="layer1" />
  <defs
     id="defs4">
    <linearGradient
       id="linearGradient3757">
      <stop
         id="stop3759"
         style="stop-color:#262626;stop-opacity:1"
         offset="0" />
      <stop
         id="stop3761"
         style="stop-color:#333333;stop-opacity:0.58823532"
         offset="1" />
    </linearGradient>
    <linearGradient
       x1="31.314728"
       y1="660.42297"
       x2="31.314728"
       y2="414.9559"
       id="linearGradient3798"
       xlink:href="#linearGradient3757"
       gradientUnits="userSpaceOnUse"
       gradientTransform="matrix(0.80332155,0,0,0.84975299,288.99069,125.11433)" />
  </defs>
  <metadata
     id="metadata7">
    <rdf:RDF>
      <cc:Work
         rdf:about="">
        <dc:format>image/svg+xml</dc:format>
        <dc:type
           rdf:resource="http://purl.org/dc/dcmitype/StillImage" />
        <dc:title></dc:title>
      </cc:Work>
    </rdf:RDF>
  </metadata>
  <g
     transform="translate(-140.81731,-331.11325)"
     id="layer1">
    <g
       id="g4228">
      <rect
         style="opacity:0.59999994;fill:#e6e6e6;fill-opacity:1;stroke:none"
         id="rect2985"
         y="331.11325"
         x="140.81731"
         ry="0.70042151"
         height="504.40765"
         width="349.10669" />
      <path
         style="opacity:0.6;"
         inkscape:connector-curvature="0"
         d="m 271.54084,660.07411 0,-79.79522 c -29.27759,0 -43.52467,19.69491 -43.52467,39.89761 0,20.36229 14.47195,39.89761 43.52467,39.89761 z M 402.11483,620.1765 c 0,-20.2027 -14.24708,-39.89761 -43.52467,-39.89761 l 0,79.79522 c 29.05272,0 43.52467,-19.53532 43.52467,-39.89761 z M 315.0655,522.08641 c -28.1387,-0.058 -49.77045,17.03991 -56.16858,44.93922 -5.44784,1.05185 -10.72883,2.79283 -15.67613,5.19394 4.56283,-39.90486 31.3305,-71.7359 71.84471,-71.7359 40.54322,0 67.39069,31.83829 71.93176,71.78668 -4.96181,-2.42287 -10.26457,-4.17111 -15.73416,-5.23021 -6.39088,-27.92833 -28.05165,-45.01176 -56.1976,-44.95373 z"
         id="path3396" />
    </g>
  </g>
</svg>
