<?xml version="1.0" encoding="UTF-8" standalone="no"?>
<!-- Created with Inkscape (http://www.inkscape.org/) -->

<svg
   xmlns:dc="http://purl.org/dc/elements/1.1/"
   xmlns:cc="http://creativecommons.org/ns#"
   xmlns:rdf="http://www.w3.org/1999/02/22-rdf-syntax-ns#"
   xmlns:svg="http://www.w3.org/2000/svg"
   xmlns="http://www.w3.org/2000/svg"
   xmlns:xlink="http://www.w3.org/1999/xlink"
   xmlns:sodipodi="http://sodipodi.sourceforge.net/DTD/sodipodi-0.dtd"
   xmlns:inkscape="http://www.inkscape.org/namespaces/inkscape"
   version="1.1"
   width="300"
   height="300"
   id="svg2"
   inkscape:version="0.91 r13725"
   sodipodi:docname="placeholder-album.svg">
  <sodipodi:namedview
     pagecolor="#ffffff"
     bordercolor="#666666"
     borderopacity="1"
     objecttolerance="10"
     gridtolerance="10"
     guidetolerance="10"
     inkscape:pageopacity="0"
     inkscape:pageshadow="2"
     inkscape:window-width="640"
     inkscape:window-height="480"
     id="namedview12"
     showgrid="false"
     inkscape:zoom="2.6915631"
     inkscape:cx="-68.339756"
     inkscape:cy="129.58689"
     inkscape:current-layer="g4228" />
  <defs
     id="defs4">
    <linearGradient
       id="linearGradient3757">
      <stop
         id="stop3759"
         style="stop-color:#262626;stop-opacity:1"
         offset="0" />
      <stop
         id="stop3761"
         style="stop-color:#333333;stop-opacity:0.58823532"
         offset="1" />
    </linearGradient>
    <linearGradient
       x1="31.314728"
       y1="660.42297"
       x2="31.314728"
       y2="414.9559"
       id="linearGradient3798"
       xlink:href="#linearGradient3757"
       gradientUnits="userSpaceOnUse"
       gradientTransform="matrix(0.80332155,0,0,0.84975299,288.99069,125.11433)" />
  </defs>
  <metadata
     id="metadata7">
    <rdf:RDF>
      <cc:Work
         rdf:about="">
        <dc:format>image/svg+xml</dc:format>
        <dc:type
           rdf:resource="http://purl.org/dc/dcmitype/StillImage" />
        <dc:title></dc:title>
      </cc:Work>
    </rdf:RDF>
  </metadata>
  <g
     transform="translate(-140.81731,-535.52091)"
     id="layer1">
    <g
       id="g4228">
      <rect
         style="opacity:0.59999994;fill:#e6e6e6;fill-opacity:1;stroke:none"
         id="rect2985"
         y="535.52094"
         x="140.81731"
         ry="0.41658062"
         height="300"
         width="300" />
      <path
         id="path4215"
         d="m 304.27285,685.52093 c 0,7.42074 -6.03481,13.45555 -13.45555,13.45555 -7.42073,0 -13.45555,-6.03481 -13.45555,-13.45555 0,-7.42073 6.03482,-13.45555 13.45555,-13.45555 7.42074,0 13.45555,6.03482 13.45555,13.45555 z m 67.27775,0 c 0,44.58496 -36.14834,80.7333 -80.7333,80.7333 -44.58496,0 -80.73329,-36.14834 -80.73329,-80.7333 0,-44.58496 36.14833,-80.73329 80.73329,-80.73329 44.58496,0 80.7333,36.14833 80.7333,80.73329 z m -103.87684,33.04684 c -3.84829,-2.69784 -7.19871,-6.04827 -9.89655,-9.89656 l -24.83223,11.04028 c 5.77917,9.75527 13.93323,17.90933 23.6885,23.68849 l 11.04028,-24.83221 z m 50.05464,-33.04684 c 0,-14.86165 -12.04944,-26.9111 -26.9111,-26.9111 -14.86165,0 -26.9111,12.04945 -26.9111,26.9111 0,14.86166 12.04945,26.9111 26.9111,26.9111 14.86166,0 26.9111,-12.04944 26.9111,-26.9111 z m 30.96795,-34.17709 c -5.77916,-9.762 -13.93322,-17.91606 -23.69523,-23.69523 l -11.04028,24.83223 c 3.84829,2.69784 7.19873,6.04826 9.9033,9.89655 l 24.83221,-11.03355 z"
         inkscape:connector-curvature="0"
         style="opacity:0.6" />
    </g>
  </g>
</svg>
