<?xml version="1.0" encoding="UTF-8" standalone="no"?>
<svg
   xmlns:dc="http://purl.org/dc/elements/1.1/"
   xmlns:cc="http://creativecommons.org/ns#"
   xmlns:rdf="http://www.w3.org/1999/02/22-rdf-syntax-ns#"
   xmlns:svg="http://www.w3.org/2000/svg"
   xmlns="http://www.w3.org/2000/svg"
   xmlns:sodipodi="http://sodipodi.sourceforge.net/DTD/sodipodi-0.dtd"
   xmlns:inkscape="http://www.inkscape.org/namespaces/inkscape"
   width="24"
   height="24"
   viewBox="0 0 24 24"
   id="svg2"
   version="1.1"
   inkscape:version="0.91 r13725"
   sodipodi:docname="iconmonstr-disk-14.svg">
  <metadata
     id="metadata10">
    <rdf:RDF>
      <cc:Work
         rdf:about="">
        <dc:format>image/svg+xml</dc:format>
        <dc:type
           rdf:resource="http://purl.org/dc/dcmitype/StillImage" />
        <dc:title></dc:title>
      </cc:Work>
    </rdf:RDF>
  </metadata>
  <defs
     id="defs8" />
  <sodipodi:namedview
     pagecolor="#ffffff"
     bordercolor="#666666"
     borderopacity="1"
     objecttolerance="10"
     gridtolerance="10"
     guidetolerance="10"
     inkscape:pageopacity="0"
     inkscape:pageshadow="2"
     inkscape:window-width="640"
     inkscape:window-height="480"
     id="namedview6"
     showgrid="false"
     inkscape:zoom="42.333333"
     inkscape:cx="12.907794"
     inkscape:cy="12.865111"
     inkscape:current-layer="svg2" />
  <path
     d="M 20,18.5 C 20,18.776 19.776,19 19.5,19 19.224,19 19,18.776 19,18.5 19,18.224 19.224,18 19.5,18 19.776,18 20,18.224 20,18.5 Z M 24,16 19,2 5,2 0,16 0,22 24,22 Z M 6.334,4 17.667,4 21.417,15 2.583,15 Z M 22,20 2,20 2,17 22,17 Z M 9.6062992,5.7007874 7.7716535,12.393701 16.141732,9.5511811 Z"
     id="path4"
     inkscape:connector-curvature="0"
     sodipodi:nodetypes="sssssccccccccccccccccccccc" />
</svg>
